<svg xmlns="http://www.w3.org/2000/svg" width="676" height="275" viewBox="0 0 676 275">
  <g fill="none" fill-rule="evenodd">
    <path stroke="#03B4EE" stroke-dasharray="5" stroke-width="2" d="M633.179 88.09L402.308 143.172M633.179 185.664L402.308 130.583M338.166 85.587L633.179 85.587M337.166 186.365L633.179 186.365M43.154 88.09L274.024 143.172M43.154 185.664L274.024 130.583M338.167 85.587L43.154 85.587M339.167 186.365L43.154 186.365" opacity=".3"/>
    <polygon fill="#03B4EE" fill-rule="nonzero" points="382.365 60.578 338.166 35.06 248.691 86.719 248.691 190.036 292.89 215.554 338.166 241.695 427.642 190.036 427.642 86.719" opacity=".1"/>
    <polygon fill="#03B4EE" fill-rule="nonzero" points="372.821 77.379 338.166 57.371 268.013 97.874 268.013 178.881 302.667 198.888 338.166 219.384 408.32 178.881 408.32 97.874"/>
    <g fill-rule="nonzero" transform="translate(294 113)">
      <rect width="50.074" height="87.543" x="19.13" y="-18.395" fill="#FFF" transform="rotate(90 44.166 25.377)"/>
      <rect width="18.886" height="4.582" x="3.395" y="3.34" fill="#019CCF"/>
      <rect width="18.886" height="4.582" x="24.281" y="3.34" fill="#019CCF"/>
      <rect width="18.886" height="4.582" x="45.166" y="3.34" fill="#019CCF"/>
      <rect width="18.886" height="4.582" x="66.052" y="3.34" fill="#019CCF"/>
      <rect width="18.886" height="4.582" x="3.395" y="9.922" fill="#DEDEDE"/>
      <rect width="18.886" height="4.582" x="24.281" y="9.922" fill="#DEDEDE"/>
      <rect width="18.886" height="4.582" x="45.166" y="9.922" fill="#DEDEDE"/>
      <rect width="18.886" height="4.582" x="66.052" y="9.922" fill="#DEDEDE"/>
      <rect width="18.886" height="4.582" x="3.395" y="16.504" fill="#DEDEDE"/>
      <rect width="18.886" height="4.582" x="24.281" y="16.504" fill="#DEDEDE"/>
      <rect width="18.886" height="4.582" x="45.166" y="16.504" fill="#DEDEDE"/>
      <rect width="18.886" height="4.582" x="66.052" y="16.504" fill="#DEDEDE"/>
      <rect width="18.886" height="4.582" x="3.395" y="23.086" fill="#DEDEDE"/>
      <rect width="18.886" height="4.582" x="24.281" y="23.086" fill="#DEDEDE"/>
      <rect width="18.886" height="4.582" x="45.166" y="23.086" fill="#DEDEDE"/>
      <rect width="18.886" height="4.582" x="66.052" y="23.086" fill="#DEDEDE"/>
      <rect width="18.886" height="4.582" x="3.395" y="29.668" fill="#DEDEDE"/>
      <rect width="18.886" height="4.582" x="24.281" y="29.668" fill="#DEDEDE"/>
      <rect width="18.886" height="4.582" x="45.166" y="29.668" fill="#DEDEDE"/>
      <rect width="18.886" height="4.582" x="66.052" y="29.668" fill="#DEDEDE"/>
      <rect width="18.886" height="4.582" x="3.395" y="36.25" fill="#DEDEDE"/>
      <rect width="18.886" height="4.582" x="24.281" y="36.25" fill="#DEDEDE"/>
      <rect width="18.886" height="4.582" x="45.166" y="36.25" fill="#DEDEDE"/>
      <rect width="18.886" height="4.582" x="66.052" y="36.25" fill="#DEDEDE"/>
      <rect width="18.886" height="4.582" x="3.395" y="42.833" fill="#DEDEDE"/>
      <rect width="18.886" height="4.582" x="24.281" y="42.833" fill="#DEDEDE"/>
      <rect width="18.886" height="4.582" x="45.166" y="42.833" fill="#DEDEDE"/>
      <rect width="18.886" height="4.582" x="66.052" y="42.833" fill="#DEDEDE"/>
    </g>
    <g fill-rule="nonzero" transform="translate(323 123)">
      <path fill="#505050" d="M22.546,2.388 C17.9792401,-0.248620054 12.3527599,-0.248620054 7.786,2.388 L7.606,2.488 C3.03940562,5.12452449 0.226191118,9.99695102 0.226,15.27 L0.226,15.478 C0.226191118,20.751049 3.03940562,25.6234755 7.606,28.26 L7.786,28.36 C12.3527599,30.9966201 17.9792401,30.9966201 22.546,28.36 L22.726,28.26 C27.2925944,25.6234755 30.1058089,20.751049 30.106,15.478 L30.106,15.27 C30.1058089,9.99695102 27.2925944,5.12452449 22.726,2.488 L22.546,2.388 Z"/>
      <path fill="#FFF" d="M10.671,20.471 L19.662,20.471 L19.662,14.177 L10.671,14.177 L10.671,20.471 Z M12.471,10.651 L12.471,13.278 L17.866,13.278 L17.866,10.651 C17.8798831,9.92282061 17.6014793,9.21942766 17.093,8.698 C16.588065,8.17739238 15.8937528,7.88356389 15.1685,7.88356389 C14.4432472,7.88356389 13.748935,8.17739238 13.244,8.698 C12.7369478,9.22035102 12.4587893,9.92312405 12.471,10.651 Z M18.765,10.651 L18.765,13.278 L20.565,13.278 L20.565,21.37 L9.775,21.37 L9.775,13.278 L11.575,13.278 L11.575,10.651 C11.5547193,9.68050835 11.927217,8.74295366 12.608,8.051 C13.2861724,7.36752305 14.2091612,6.98310063 15.172,6.98310063 C16.1348388,6.98310063 17.0578276,7.36752305 17.736,8.051 C18.4145883,8.743942 18.7848744,9.68137521 18.763,10.651 L18.765,10.651 Z"/>
    </g>
    <path stroke="#03B4EE" stroke-dasharray="5" stroke-width="2" d="M632.179 87.878L632.179 21.84 564.308 21.84M632.179 186.365L632.179 252.402 564.308 252.402" opacity=".3"/>
    <rect width="50.074" height="87.543" x="607.141" y="44.106" fill="#FFF" fill-rule="nonzero" transform="rotate(90 632.178 87.878)"/>
    <rect width="18.886" height="4.582" x="591.407" y="65.84" fill="#019CCF" fill-rule="nonzero"/>
    <rect width="18.886" height="4.582" x="612.293" y="65.84" fill="#019CCF" fill-rule="nonzero"/>
    <rect width="18.886" height="4.582" x="633.179" y="65.84" fill="#019CCF" fill-rule="nonzero"/>
    <rect width="18.886" height="4.582" x="654.065" y="65.84" fill="#019CCF" fill-rule="nonzero"/>
    <rect width="18.886" height="4.582" x="591.407" y="72.422" fill="#DEDEDE" fill-rule="nonzero"/>
    <rect width="18.886" height="4.582" x="612.293" y="72.422" fill="#DEDEDE" fill-rule="nonzero"/>
    <rect width="18.886" height="4.582" x="633.179" y="72.422" fill="#DEDEDE" fill-rule="nonzero"/>
    <rect width="18.886" height="4.582" x="654.065" y="72.422" fill="#DEDEDE" fill-rule="nonzero"/>
    <rect width="18.886" height="4.582" x="591.407" y="79.004" fill="#DEDEDE" fill-rule="nonzero"/>
    <rect width="18.886" height="4.582" x="612.293" y="79.004" fill="#DEDEDE" fill-rule="nonzero"/>
    <rect width="18.886" height="4.582" x="633.179" y="79.004" fill="#DEDEDE" fill-rule="nonzero"/>
    <rect width="18.886" height="4.582" x="654.065" y="79.004" fill="#DEDEDE" fill-rule="nonzero"/>
    <rect width="18.886" height="4.582" x="591.407" y="85.587" fill="#DEDEDE" fill-rule="nonzero"/>
    <rect width="18.886" height="4.582" x="612.293" y="85.587" fill="#DEDEDE" fill-rule="nonzero"/>
    <rect width="18.886" height="4.582" x="633.179" y="85.587" fill="#DEDEDE" fill-rule="nonzero"/>
    <rect width="18.886" height="4.582" x="654.065" y="85.587" fill="#DEDEDE" fill-rule="nonzero"/>
    <rect width="18.886" height="4.582" x="591.407" y="92.169" fill="#DEDEDE" fill-rule="nonzero"/>
    <rect width="18.886" height="4.582" x="612.293" y="92.169" fill="#DEDEDE" fill-rule="nonzero"/>
    <rect width="18.886" height="4.582" x="633.179" y="92.169" fill="#DEDEDE" fill-rule="nonzero"/>
    <rect width="18.886" height="4.582" x="654.065" y="92.169" fill="#DEDEDE" fill-rule="nonzero"/>
    <rect width="18.886" height="4.582" x="591.407" y="98.751" fill="#DEDEDE" fill-rule="nonzero"/>
    <rect width="18.886" height="4.582" x="612.293" y="98.751" fill="#DEDEDE" fill-rule="nonzero"/>
    <rect width="18.886" height="4.582" x="633.179" y="98.751" fill="#DEDEDE" fill-rule="nonzero"/>
    <rect width="18.886" height="4.582" x="654.065" y="98.751" fill="#DEDEDE" fill-rule="nonzero"/>
    <rect width="18.886" height="4.582" x="591.407" y="105.333" fill="#DEDEDE" fill-rule="nonzero"/>
    <rect width="18.886" height="4.582" x="612.293" y="105.333" fill="#DEDEDE" fill-rule="nonzero"/>
    <rect width="18.886" height="4.582" x="633.179" y="105.333" fill="#DEDEDE" fill-rule="nonzero"/>
    <rect width="18.886" height="4.582" x="654.065" y="105.333" fill="#DEDEDE" fill-rule="nonzero"/>
    <rect width="50.074" height="87.543" x="607.141" y="142.107" fill="#FFF" fill-rule="nonzero" transform="rotate(90 632.178 185.878)"/>
    <rect width="18.886" height="4.582" x="591.407" y="163.84" fill="#019CCF" fill-rule="nonzero"/>
    <rect width="18.886" height="4.582" x="612.293" y="163.84" fill="#019CCF" fill-rule="nonzero"/>
    <rect width="18.886" height="4.582" x="633.179" y="163.84" fill="#019CCF" fill-rule="nonzero"/>
    <rect width="18.886" height="4.582" x="654.065" y="163.84" fill="#019CCF" fill-rule="nonzero"/>
    <rect width="18.886" height="4.582" x="591.407" y="170.422" fill="#DEDEDE" fill-rule="nonzero"/>
    <rect width="18.886" height="4.582" x="612.293" y="170.422" fill="#DEDEDE" fill-rule="nonzero"/>
    <rect width="18.886" height="4.582" x="633.179" y="170.422" fill="#DEDEDE" fill-rule="nonzero"/>
    <rect width="18.886" height="4.582" x="654.065" y="170.422" fill="#DEDEDE" fill-rule="nonzero"/>
    <rect width="18.886" height="4.582" x="591.407" y="177.004" fill="#DEDEDE" fill-rule="nonzero"/>
    <rect width="18.886" height="4.582" x="612.293" y="177.004" fill="#DEDEDE" fill-rule="nonzero"/>
    <rect width="18.886" height="4.582" x="633.179" y="177.004" fill="#DEDEDE" fill-rule="nonzero"/>
    <rect width="18.886" height="4.582" x="654.065" y="177.004" fill="#DEDEDE" fill-rule="nonzero"/>
    <rect width="18.886" height="4.582" x="591.407" y="183.587" fill="#DEDEDE" fill-rule="nonzero"/>
    <rect width="18.886" height="4.582" x="612.293" y="183.587" fill="#DEDEDE" fill-rule="nonzero"/>
    <rect width="18.886" height="4.582" x="633.179" y="183.587" fill="#DEDEDE" fill-rule="nonzero"/>
    <rect width="18.886" height="4.582" x="654.065" y="183.587" fill="#DEDEDE" fill-rule="nonzero"/>
    <rect width="18.886" height="4.582" x="591.407" y="190.169" fill="#DEDEDE" fill-rule="nonzero"/>
    <rect width="18.886" height="4.582" x="612.293" y="190.169" fill="#DEDEDE" fill-rule="nonzero"/>
    <rect width="18.886" height="4.582" x="633.179" y="190.169" fill="#DEDEDE" fill-rule="nonzero"/>
    <rect width="18.886" height="4.582" x="654.065" y="190.169" fill="#DEDEDE" fill-rule="nonzero"/>
    <rect width="18.886" height="4.582" x="591.407" y="196.751" fill="#DEDEDE" fill-rule="nonzero"/>
    <rect width="18.886" height="4.582" x="612.293" y="196.751" fill="#DEDEDE" fill-rule="nonzero"/>
    <rect width="18.886" height="4.582" x="633.179" y="196.751" fill="#DEDEDE" fill-rule="nonzero"/>
    <rect width="18.886" height="4.582" x="654.065" y="196.751" fill="#DEDEDE" fill-rule="nonzero"/>
    <rect width="18.886" height="4.582" x="591.407" y="203.333" fill="#DEDEDE" fill-rule="nonzero"/>
    <rect width="18.886" height="4.582" x="612.293" y="203.333" fill="#DEDEDE" fill-rule="nonzero"/>
    <rect width="18.886" height="4.582" x="633.179" y="203.333" fill="#DEDEDE" fill-rule="nonzero"/>
    <rect width="18.886" height="4.582" x="654.065" y="203.333" fill="#DEDEDE" fill-rule="nonzero"/>
    <polygon fill="#027DCD" fill-rule="nonzero" points="547.563 5.394 538.22 0 519.305 10.92 519.305 32.761 528.648 38.155 538.22 43.681 557.134 32.761 557.134 10.92"/>
    <path fill="#FFF" fill-rule="nonzero" d="M535.4,21.661 C536.134021,22.4303198 537.155811,22.8583911 538.219,22.842 C540.430049,22.8359566 542.220957,21.0450492 542.227,18.834 C542.227839,17.023273 541.012183,15.437814 539.263276,14.9687109 C537.514369,14.4996078 535.668455,15.2638725 534.763007,16.8319595 C533.857559,18.4000464 534.118429,20.3808157 535.399,21.661 L535.4,21.661 Z M545.23,29.849 L544.23,29.849 C544.265027,28.2456282 543.643509,26.6975424 542.509483,25.5635169 C541.375458,24.4294913 539.827372,23.8079726 538.224,23.843 C537.162739,23.8327778 536.117913,24.1054611 535.197,24.633 C534.288491,25.1505428 533.537202,25.9045966 533.023,26.815 C532.487713,27.7360024 532.209368,28.783768 532.217,29.849 L531.217,29.849 C531.200804,28.3993431 531.642821,26.981596 532.48,25.798 C533.303617,24.6125459 534.482713,23.719557 535.847,23.248 C535.04814,22.8241301 534.384295,22.1845386 533.931,21.402 C533.48444,20.6821331 533.238607,19.8559004 533.219,19.009 C533.203821,18.2876056 533.333372,17.5704848 533.6,16.9 C534.108951,15.6874079 535.073408,14.7229508 536.286,14.214 C537.074837,13.9281898 537.911627,13.7981206 538.75,13.831 C539.911904,13.8892705 541.000204,14.4173577 541.765,15.294 C542.723004,16.227132 543.252506,17.5148737 543.228,18.852 C543.324023,19.9734082 542.959778,21.0856365 542.219,21.933 C541.742885,22.4340747 541.205282,22.8728929 540.619,23.239 C541.991608,23.7010332 543.176368,24.5975895 543.994,25.793 C544.814894,26.9847961 545.245706,28.4019706 545.227,29.849 L545.23,29.849 Z"/>
    <polygon fill="#027DCD" fill-rule="nonzero" points="547.563 235.956 538.22 230.562 519.305 241.482 519.305 263.322 528.648 268.717 538.22 274.243 557.134 263.322 557.134 241.482"/>
    <path fill="#FFF" fill-rule="nonzero" d="M535.4,252.222 C536.134021,252.99132 537.155811,253.419391 538.219,253.403 C540.428139,253.403 542.219,251.612139 542.219,249.403 C542.219,247.193861 540.428139,245.403 538.219,245.403 C536.009861,245.403 534.219,247.193861 534.219,249.403 C534.202609,250.466189 534.63068,251.487979 535.4,252.222 Z M545.231,260.41 L544.231,260.41 C544.266027,258.806628 543.644509,257.258542 542.510483,256.124517 C541.376458,254.990491 539.828372,254.368973 538.225,254.404 C537.163739,254.393778 536.118913,254.666461 535.198,255.194 C534.289491,255.711543 533.538202,256.465597 533.024,257.376 C532.488713,258.297002 532.210368,259.344768 532.218,260.41 L531.218,260.41 C531.201804,258.960343 531.643821,257.542596 532.481,256.359 C533.304617,255.173546 534.483713,254.280557 535.848,253.809 C535.04914,253.38513 534.385295,252.745539 533.932,251.963 C533.48544,251.243133 533.239607,250.4169 533.22,249.57 C533.205591,248.848805 533.33582,248.132033 533.603,247.462 C534.111951,246.249408 535.076408,245.284951 536.289,244.776 C537.077837,244.49019 537.914627,244.360121 538.753,244.393 C539.914904,244.45127 541.003204,244.979358 541.768,245.856 C542.726004,246.789132 543.255506,248.076874 543.231,249.414 C543.327023,250.535408 542.962778,251.647636 542.222,252.495 C541.745885,252.996075 541.208282,253.434893 540.622,253.801 C541.994608,254.263033 543.179368,255.15959 543.997,256.355 C544.816831,257.547148 545.246587,258.964294 545.227,260.411 L545.231,260.41 Z"/>
    <path stroke="#03B4EE" stroke-dasharray="5" stroke-width="2" d="M43.771,87.878 L43.771,21.84 L111.642,21.84" opacity=".2"/>
    <path stroke="#03B4EE" stroke-dasharray="5" stroke-width="2" d="M43.771,186.365 L43.771,252.402 L111.642,252.402" opacity=".3"/>
    <rect width="50.074" height="87.543" x="18.735" y="44.105" fill="#FFF" fill-rule="nonzero" transform="rotate(90 43.772 87.877)"/>
    <rect width="18.886" height="4.582" x="65.657" y="65.84" fill="#019CCF" fill-rule="nonzero"/>
    <rect width="18.886" height="4.582" x="44.771" y="65.84" fill="#019CCF" fill-rule="nonzero"/>
    <rect width="18.886" height="4.582" x="23.886" y="65.84" fill="#019CCF" fill-rule="nonzero"/>
    <rect width="18.886" height="4.582" x="3" y="65.84" fill="#019CCF" fill-rule="nonzero"/>
    <rect width="18.886" height="4.582" x="65.657" y="72.422" fill="#DEDEDE" fill-rule="nonzero"/>
    <rect width="18.886" height="4.582" x="44.771" y="72.422" fill="#DEDEDE" fill-rule="nonzero"/>
    <rect width="18.886" height="4.582" x="23.886" y="72.422" fill="#DEDEDE" fill-rule="nonzero"/>
    <rect width="18.886" height="4.582" x="3" y="72.422" fill="#DEDEDE" fill-rule="nonzero"/>
    <rect width="18.886" height="4.582" x="65.657" y="79.004" fill="#DEDEDE" fill-rule="nonzero"/>
    <rect width="18.886" height="4.582" x="44.771" y="79.004" fill="#DEDEDE" fill-rule="nonzero"/>
    <rect width="18.886" height="4.582" x="23.886" y="79.004" fill="#DEDEDE" fill-rule="nonzero"/>
    <rect width="18.886" height="4.582" x="3" y="79.004" fill="#DEDEDE" fill-rule="nonzero"/>
    <rect width="18.886" height="4.582" x="65.657" y="85.587" fill="#DEDEDE" fill-rule="nonzero"/>
    <rect width="18.886" height="4.582" x="44.771" y="85.587" fill="#DEDEDE" fill-rule="nonzero"/>
    <rect width="18.886" height="4.582" x="23.886" y="85.587" fill="#DEDEDE" fill-rule="nonzero"/>
    <rect width="18.886" height="4.582" x="3" y="85.587" fill="#DEDEDE" fill-rule="nonzero"/>
    <rect width="18.886" height="4.582" x="65.657" y="92.169" fill="#DEDEDE" fill-rule="nonzero"/>
    <rect width="18.886" height="4.582" x="44.771" y="92.169" fill="#DEDEDE" fill-rule="nonzero"/>
    <rect width="18.886" height="4.582" x="23.886" y="92.169" fill="#DEDEDE" fill-rule="nonzero"/>
    <rect width="18.886" height="4.582" x="3" y="92.169" fill="#DEDEDE" fill-rule="nonzero"/>
    <rect width="18.886" height="4.582" x="65.657" y="98.751" fill="#DEDEDE" fill-rule="nonzero"/>
    <rect width="18.886" height="4.582" x="44.771" y="98.751" fill="#DEDEDE" fill-rule="nonzero"/>
    <rect width="18.886" height="4.582" x="23.886" y="98.751" fill="#DEDEDE" fill-rule="nonzero"/>
    <rect width="18.886" height="4.582" x="3" y="98.751" fill="#DEDEDE" fill-rule="nonzero"/>
    <rect width="18.886" height="4.582" x="65.657" y="105.333" fill="#DEDEDE" fill-rule="nonzero"/>
    <rect width="18.886" height="4.582" x="44.771" y="105.333" fill="#DEDEDE" fill-rule="nonzero"/>
    <rect width="18.886" height="4.582" x="23.886" y="105.333" fill="#DEDEDE" fill-rule="nonzero"/>
    <rect width="18.886" height="4.582" x="3" y="105.333" fill="#DEDEDE" fill-rule="nonzero"/>
    <rect width="50.074" height="87.543" x="18.735" y="142.106" fill="#FFF" fill-rule="nonzero" transform="rotate(90 43.771 185.877)"/>
    <rect width="18.886" height="4.582" x="65.657" y="163.84" fill="#019CCF" fill-rule="nonzero"/>
    <rect width="18.886" height="4.582" x="44.771" y="163.84" fill="#019CCF" fill-rule="nonzero"/>
    <rect width="18.886" height="4.582" x="23.886" y="163.84" fill="#019CCF" fill-rule="nonzero"/>
    <rect width="18.886" height="4.582" x="3" y="163.84" fill="#019CCF" fill-rule="nonzero"/>
    <rect width="18.886" height="4.582" x="65.657" y="170.422" fill="#DEDEDE" fill-rule="nonzero"/>
    <rect width="18.886" height="4.582" x="44.771" y="170.422" fill="#DEDEDE" fill-rule="nonzero"/>
    <rect width="18.886" height="4.582" x="23.886" y="170.422" fill="#DEDEDE" fill-rule="nonzero"/>
    <rect width="18.886" height="4.582" x="3" y="170.422" fill="#DEDEDE" fill-rule="nonzero"/>
    <rect width="18.886" height="4.582" x="65.657" y="177.004" fill="#DEDEDE" fill-rule="nonzero"/>
    <rect width="18.886" height="4.582" x="44.771" y="177.004" fill="#DEDEDE" fill-rule="nonzero"/>
    <rect width="18.886" height="4.582" x="23.886" y="177.004" fill="#DEDEDE" fill-rule="nonzero"/>
    <rect width="18.886" height="4.582" x="3" y="177.004" fill="#DEDEDE" fill-rule="nonzero"/>
    <rect width="18.886" height="4.582" x="65.657" y="183.587" fill="#DEDEDE" fill-rule="nonzero"/>
    <rect width="18.886" height="4.582" x="44.771" y="183.587" fill="#DEDEDE" fill-rule="nonzero"/>
    <rect width="18.886" height="4.582" x="23.886" y="183.587" fill="#DEDEDE" fill-rule="nonzero"/>
    <rect width="18.886" height="4.582" x="3" y="183.587" fill="#DEDEDE" fill-rule="nonzero"/>
    <rect width="18.886" height="4.582" x="65.657" y="190.169" fill="#DEDEDE" fill-rule="nonzero"/>
    <rect width="18.886" height="4.582" x="44.771" y="190.169" fill="#DEDEDE" fill-rule="nonzero"/>
    <rect width="18.886" height="4.582" x="23.886" y="190.169" fill="#DEDEDE" fill-rule="nonzero"/>
    <rect width="18.886" height="4.582" x="3" y="190.169" fill="#DEDEDE" fill-rule="nonzero"/>
    <rect width="18.886" height="4.582" x="65.657" y="196.751" fill="#DEDEDE" fill-rule="nonzero"/>
    <rect width="18.886" height="4.582" x="44.771" y="196.751" fill="#DEDEDE" fill-rule="nonzero"/>
    <rect width="18.886" height="4.582" x="23.886" y="196.751" fill="#DEDEDE" fill-rule="nonzero"/>
    <rect width="18.886" height="4.582" x="3" y="196.751" fill="#DEDEDE" fill-rule="nonzero"/>
    <rect width="18.886" height="4.582" x="65.657" y="203.333" fill="#DEDEDE" fill-rule="nonzero"/>
    <rect width="18.886" height="4.582" x="44.771" y="203.333" fill="#DEDEDE" fill-rule="nonzero"/>
    <rect width="18.886" height="4.582" x="23.886" y="203.333" fill="#DEDEDE" fill-rule="nonzero"/>
    <rect width="18.886" height="4.582" x="3" y="203.333" fill="#DEDEDE" fill-rule="nonzero"/>
    <polygon fill="#027DCD" fill-rule="nonzero" points="128.387 5.394 137.731 0 156.645 10.92 156.645 32.761 147.302 38.155 137.731 43.681 118.816 32.761 118.816 10.92"/>
    <path fill="#FFF" fill-rule="nonzero" d="M140.554,21.661 C141.32332,20.9269786 141.751391,19.9051895 141.735,18.842 C141.735837,17.0319749 140.521103,15.4469483 138.773095,14.9772038 C137.025087,14.5074593 135.179469,15.2700735 134.272894,16.8366984 C133.366319,18.4033233 133.624738,20.3835019 134.903,21.665 C135.643705,22.4313482 136.668309,22.8573316 137.734,22.842 C138.797189,22.8583911 139.818979,22.4303198 140.553,21.661 L140.554,21.661 Z M131.962,25.794 C132.779632,24.5985895 133.964392,23.7020332 135.337,23.24 C134.750718,22.8738929 134.213115,22.4350747 133.737,21.934 C132.996222,21.0866365 132.631977,19.9744082 132.728,18.853 C132.703494,17.5158737 133.232996,16.228132 134.191,15.295 C134.955796,14.4183577 136.044096,13.8902705 137.206,13.832 C138.044373,13.7991206 138.881163,13.9291898 139.67,14.215 C140.882592,14.7239508 141.847049,15.6884079 142.356,16.901 C142.62318,17.571033 142.753409,18.2878053 142.739,19.009 C142.719393,19.8559004 142.47356,20.6821331 142.027,21.402 C141.573705,22.1845386 140.90986,22.8241301 140.111,23.248 C141.475287,23.719557 142.654383,24.6125459 143.478,25.798 C144.315179,26.981596 144.757196,28.3993431 144.741,29.849 L143.741,29.849 C143.748632,28.783768 143.470287,27.7360024 142.935,26.815 C142.420798,25.9045966 141.669509,25.1505428 140.761,24.633 C139.840087,24.1054611 138.795261,23.8327778 137.734,23.843 C136.130628,23.8079726 134.582542,24.4294913 133.448517,25.5635169 C132.314491,26.6975424 131.692973,28.2456282 131.728,29.849 L130.728,29.849 C130.710089,28.4020947 131.141596,26.9852817 131.963,25.794 L131.962,25.794 Z"/>
    <polygon fill="#027DCD" fill-rule="nonzero" points="128.387 235.956 137.731 230.562 156.645 241.482 156.645 263.322 147.302 268.717 137.731 274.243 118.816 263.322 118.816 241.482"/>
    <path fill="#FFF" fill-rule="nonzero" d="M140.554,252.222 C141.32332,251.487979 141.751391,250.466189 141.735,249.403 C141.735,247.193861 139.944139,245.403 137.735,245.403 C135.525861,245.403 133.735,247.193861 133.735,249.403 C133.735,251.612139 135.525861,253.403 137.735,253.403 C138.798189,253.419391 139.819979,252.99132 140.554,252.222 Z M131.963,256.355 C132.780632,255.15959 133.965392,254.263033 135.338,253.801 C134.751718,253.434893 134.214115,252.996075 133.738,252.495 C132.997222,251.647636 132.632977,250.535408 132.729,249.414 C132.704494,248.076874 133.233996,246.789132 134.192,245.856 C134.956796,244.979358 136.045096,244.45127 137.207,244.393 C138.045373,244.360121 138.882163,244.49019 139.671,244.776 C140.883592,245.284951 141.848049,246.249408 142.357,247.462 C142.62418,248.132033 142.754409,248.848805 142.74,249.57 C142.720393,250.4169 142.47456,251.243133 142.028,251.963 C141.574705,252.745539 140.91086,253.38513 140.112,253.809 C141.476287,254.280557 142.655383,255.173546 143.479,256.359 C144.316179,257.542596 144.758196,258.960343 144.742,260.41 L143.742,260.41 C143.749632,259.344768 143.471287,258.297002 142.936,257.376 C142.421798,256.465597 141.670509,255.711543 140.762,255.194 C139.841087,254.666461 138.796261,254.393778 137.735,254.404 C136.131628,254.368973 134.583542,254.990491 133.449517,256.124517 C132.315491,257.258542 131.693973,258.806628 131.729,260.41 L130.729,260.41 C130.711003,258.963543 131.142149,257.547119 131.963,256.356 L131.963,256.355 Z"/>
    <g transform="translate(33 54)">
      <path fill="#505050" fill-rule="nonzero" d="M17.191,1.9 C13.6969336,-0.117300153 9.39206636,-0.117300153 5.898,1.9 L5.76,1.979 C2.26574889,3.99616864 0.113112022,7.72430545 0.113,11.759 L0.113,11.918 C0.112397392,15.9534091 2.26513001,19.6824742 5.76,21.7 L5.898,21.779 C9.39206636,23.7963002 13.6969336,23.7963002 17.191,21.779 L17.329,21.7 C20.8228662,19.6825772 22.9750942,15.9544883 22.975,11.92 L22.975,11.761 C22.9750942,7.72651171 20.8228662,3.99842277 17.329,1.981 L17.191,1.9 Z"/>
      <polyline stroke="#FFF" stroke-width="1.2" points="6.564 11.479 10.125 15.041 16.525 8.64"/>
    </g>
    <g transform="translate(33 196)">
      <path fill="#505050" fill-rule="nonzero" d="M17.191,2.264 C13.6969336,0.246699847 9.39206636,0.246699847 5.898,2.264 L5.76,2.343 C2.26574889,4.36016864 0.113112022,8.08830545 0.113,12.123 L0.113,12.282 C0.112905754,16.3164883 2.26513379,20.0445772 5.759,22.062 L5.897,22.141 C9.39106636,24.1583002 13.6959336,24.1583002 17.19,22.141 L17.328,22.062 C20.8218662,20.0445772 22.9740942,16.3164883 22.974,12.282 L22.974,12.123 C22.9740942,8.08851171 20.8218662,4.36042277 17.328,2.343 L17.191,2.264 Z"/>
      <polyline stroke="#FFF" stroke-width="1.2" points="6.564 11.842 10.125 15.403 16.525 9.002"/>
    </g>
    <g transform="translate(620 54)">
      <path fill="#505050" fill-rule="nonzero" d="M17.825,1.9 C14.3309336,-0.117300153 10.0260664,-0.117300153 6.532,1.9 L6.394,1.979 C2.89974889,3.99616864 0.747112022,7.72430545 0.747,11.759 L0.747,11.918 C0.746905754,15.9524883 2.89913379,19.6805772 6.393,21.698 L6.531,21.777 C10.0250664,23.7943002 14.3299336,23.7943002 17.824,21.777 L17.962,21.698 C21.4558662,19.6805772 23.6080942,15.9524883 23.608,11.918 L23.608,11.759 C23.6080942,7.72451171 21.4558662,3.99642277 17.962,1.979 L17.825,1.9 Z"/>
      <polyline stroke="#FFF" stroke-width="1.2" points="7.198 11.479 10.759 15.041 17.16 8.64"/>
    </g>
    <g transform="translate(620 196)">
      <path fill="#505050" fill-rule="nonzero" d="M17.825,2.264 C14.3309336,0.246699847 10.0260664,0.246699847 6.532,2.264 L6.394,2.343 C2.89974889,4.36016864 0.747112022,8.08830545 0.747,12.123 L0.747,12.282 C0.746905754,16.3164883 2.89913379,20.0445772 6.393,22.062 L6.531,22.141 C10.0250664,24.1583002 14.3299336,24.1583002 17.824,22.141 L17.962,22.062 C21.4558662,20.0445772 23.6080942,16.3164883 23.608,12.282 L23.608,12.123 C23.6080942,8.08851171 21.4558662,4.36042277 17.962,2.343 L17.825,2.264 Z"/>
      <polyline stroke="#FFF" stroke-width="1.2" points="7.198 11.842 10.759 15.403 17.16 9.002"/>
    </g>
  </g>
</svg>
